<svg width="80" height="80" viewBox="0 0 80 80" fill="none" xmlns="http://www.w3.org/2000/svg">
<rect width="80" height="80" rx="10" fill="white"/>
<g clip-path="url(#clip0_501_1126)">
<path d="M40 30C42.7613 30 45 27.7613 45 25C45 22.2387 42.7613 20 40 20C37.2387 20 35 22.2387 35 25C35 27.7613 37.2387 30 40 30ZM50 37.5737C50 36.0263 50 35 50 35C50 35 50 32.5 47.5 32.5C46.25 32.5 32.5 32.5 32.5 32.5C32.5 32.5 30 32.5 30 35V52.5C30 55 32.5 55 32.5 55V60H47.5V59.9263C47.9112 59.9725 48.3263 60 48.75 60C54.9638 59.9975 59.9975 54.9637 60 48.75C59.9975 42.9575 55.6238 38.195 50 37.5737ZM48.75 57.3537C43.9987 57.3425 40.155 53.4987 40.145 48.75C40.155 43.9988 43.9987 40.155 48.75 40.1437C53.4988 40.155 57.3425 43.9988 57.3537 48.75C57.3425 53.4987 53.4988 57.3425 48.75 57.3537Z" fill="#3C65FF"/>
<path d="M55 50V47.4988H52.9212C52.8425 47.2338 52.74 46.9825 52.615 46.7412L54.0987 45.2575L52.3288 43.4888L50.8725 44.9463C50.5975 44.7925 50.3075 44.67 50.0012 44.5788V42.5H47.5012V44.5775C47.215 44.6625 46.9438 44.775 46.6863 44.915L45.26 43.49L43.4912 45.2588L44.9163 46.6838C44.7763 46.9425 44.6638 47.2137 44.5775 47.5H42.5V50H44.5775C44.6688 50.3075 44.7925 50.5988 44.9463 50.8725L43.49 52.3263L45.2562 54.0963L46.7412 52.6125C46.9812 52.7388 47.2337 52.84 47.4975 52.9187V55H50V52.9187C50.2863 52.8337 50.5562 52.7213 50.8137 52.5813L52.3288 54.0963L54.0963 52.3263L52.5813 50.8137C52.72 50.5562 52.8325 50.285 52.9187 50H55ZM48.7488 50.6238C47.7125 50.6213 46.8762 49.785 46.8725 48.7488C46.8762 47.7125 47.7125 46.8762 48.7488 46.8725C49.785 46.8762 50.6213 47.7125 50.6238 48.7488C50.6213 49.785 49.785 50.6213 48.7488 50.6238Z" fill="#3C65FF"/>
</g>
<defs>
<clipPath id="clip0_501_1126">
<rect width="40" height="40" fill="white" transform="translate(20 20)"/>
</clipPath>
</defs>
</svg>
