<svg width="80" height="80" viewBox="0 0 80 80" fill="none" xmlns="http://www.w3.org/2000/svg">
<rect width="80" height="80" rx="10" fill="white"/>
<g clip-path="url(#clip0_501_1091)">
<path d="M60 43.75V51.25C60 53.3211 58.5076 55 56.6667 55H23.3333C21.4924 55 20 53.3211 20 51.25V43.75C20 41.6789 21.4924 40 23.3333 40H56.6667C58.5076 40 60 41.6789 60 43.75ZM56.6667 37.5C57.4005 37.4993 58.127 37.663 58.804 37.9816L52.1007 26.6698C51.7963 26.1562 51.3839 25.735 50.9 25.4437C50.4162 25.1524 49.8759 25 49.3272 25H30.6728C30.1241 25 29.5838 25.1524 29.1 25.4437C28.6162 25.735 28.2038 26.1562 27.8994 26.6698L21.196 37.9816C21.873 37.663 22.5995 37.4993 23.3333 37.5H56.6667ZM53.3333 45C52.106 45 51.1111 46.1193 51.1111 47.5C51.1111 48.8807 52.106 50 53.3333 50C54.5606 50 55.5556 48.8807 55.5556 47.5C55.5556 46.1193 54.5606 45 53.3333 45ZM46.6667 45C45.4394 45 44.4444 46.1193 44.4444 47.5C44.4444 48.8807 45.4394 50 46.6667 50C47.894 50 48.8889 48.8807 48.8889 47.5C48.8889 46.1193 47.894 45 46.6667 45Z" fill="#3C65FF"/>
</g>
<defs>
<clipPath id="clip0_501_1091">
<rect width="40" height="40" fill="white" transform="translate(20 20)"/>
</clipPath>
</defs>
</svg>
