<svg width="80" height="80" viewBox="0 0 80 80" fill="none" xmlns="http://www.w3.org/2000/svg">
<rect width="80" height="80" rx="10" fill="white"/>
<g clip-path="url(#clip0_501_1113)">
<path d="M30.7656 59.9922H25.4297C24.6484 59.9922 24.0156 59.3516 24.0156 58.5781V47.6563C24.0156 46.875 24.6562 46.2422 25.4297 46.2422H30.7656C31.5469 46.2422 32.1797 46.8828 32.1797 47.6563V58.5781C32.1875 59.3594 31.5469 59.9922 30.7656 59.9922Z" fill="#3C65FF"/>
<path d="M42.4141 59.9922H37.5859C36.6719 59.9922 35.9141 59.2422 35.9141 58.3203V42.5625C35.9141 41.6484 36.6641 40.8906 37.5859 40.8906H42.4141C43.3281 40.8906 44.0859 41.6406 44.0859 42.5625V58.3203C44.0859 59.2422 43.3359 59.9922 42.4141 59.9922Z" fill="#3C65FF"/>
<path d="M54.1016 59.9922H49.7031C48.6641 59.9922 47.8203 59.1406 47.8203 58.1094V37.5234C47.8203 36.4844 48.6719 35.6406 49.7031 35.6406H54.1016C55.1406 35.6406 55.9844 36.4922 55.9844 37.5234V58.1094C55.9844 59.1484 55.1406 59.9922 54.1016 59.9922Z" fill="#3C65FF"/>
<path d="M54.7735 20C53.0547 20.0703 51.7188 21.5234 51.7891 23.25L43.8516 31.0547L37.086 25.1328L24.7031 37.5547C23.1094 37.7578 21.9141 39.1328 21.9766 40.7656C22.0469 42.4844 23.5078 43.8203 25.2266 43.75C26.9453 43.6797 28.2813 42.2188 28.211 40.5C28.2031 40.3594 28.1719 40.2266 28.1485 40.0859L37.4688 31.1406L44.0078 36.8672L54.8438 26.2266C54.9063 26.2266 54.9688 26.2422 55.0313 26.2344C56.75 26.1641 58.086 24.7031 58.0156 22.9844C57.9453 21.2656 56.4922 19.9297 54.7735 20Z" fill="#3C65FF"/>
</g>
<defs>
<clipPath id="clip0_501_1113">
<rect width="40" height="40" fill="white" transform="translate(20 20)"/>
</clipPath>
</defs>
</svg>
