<svg width="80" height="80" viewBox="0 0 80 80" fill="none" xmlns="http://www.w3.org/2000/svg">
<rect width="80" height="80" rx="10" fill="white"/>
<path d="M26.6492 37.8906H33.0469V28.5156H26.6492C25.4494 28.5156 24.4531 29.5369 24.4531 30.7367V35.7085C24.4581 36.2881 24.6915 36.8424 25.1027 37.2509C25.5139 37.6595 26.0696 37.8893 26.6492 37.8906ZM51.4434 33.0078C51.4424 32.1897 51.117 31.4053 50.5385 30.8268C49.96 30.2482 49.1756 29.9228 48.3574 29.9219H48.2813V36.0937H48.3571C49.1753 36.0929 49.9597 35.7675 50.5383 35.189C51.1169 34.6104 51.4424 33.826 51.4434 33.0078ZM23.2031 30.7367C23.2031 30.6976 23.2099 30.6591 23.211 30.6205C22.7314 30.8194 22.3216 31.1561 22.0335 31.5881C21.7453 32.02 21.5918 32.5277 21.5923 33.0469C21.5983 33.5636 21.7535 34.0676 22.0393 34.4981C22.3251 34.9287 22.7293 35.2674 23.2031 35.4736V30.7367ZM30.2724 46.7776C30.5971 46.7783 30.9175 46.7038 31.2086 46.56C31.4997 46.4162 31.7537 46.207 31.9505 45.9489C32.1474 45.6907 32.2819 45.3904 32.3435 45.0716C32.4051 44.7528 32.3922 44.4241 32.3056 44.1112L30.9349 39.1406H26.6492C26.619 39.1406 26.589 39.1362 26.5588 39.1355L28.2391 45.2276C28.3626 45.6723 28.6281 46.0645 28.9952 46.3444C29.3623 46.6242 29.8108 46.7764 30.2724 46.7776ZM47.0313 38.3421V23.2569L34.2969 28.3584V38.0863L42.2578 41.275C43.535 39.8601 45.1919 38.842 47.0313 38.3421Z" fill="#3C65FF"/>
<path d="M49.6485 39.2441C47.9179 39.2441 46.2263 39.7572 44.7874 40.7186C43.3485 41.68 42.227 43.0464 41.5648 44.6452C40.9025 46.244 40.7292 48.0032 41.0668 49.7005C41.4044 51.3977 42.2376 52.9568 43.4613 54.1804C44.6849 55.4041 46.2439 56.2374 47.9412 56.5751C49.6384 56.9127 51.3977 56.7394 52.9965 56.0772C54.5952 55.415 55.9617 54.2935 56.9232 52.8547C57.8846 51.4158 58.3977 49.7242 58.3977 47.9937C58.3951 45.674 57.4725 43.4501 55.8323 41.8098C54.192 40.1695 51.9681 39.2468 49.6485 39.2441ZM50.2344 53.75H48.9844V51.9531H50.2344V53.75ZM50.7149 49.0767C50.5767 49.1218 50.4562 49.2089 50.37 49.3258C50.2838 49.4428 50.2364 49.5838 50.2344 49.7291V51.4844H48.9844V49.7291C48.9862 49.3201 49.117 48.922 49.3581 48.5916C49.5991 48.2612 49.9383 48.0152 50.3272 47.8887C50.7844 47.7422 51.1827 47.4534 51.464 47.0644C51.7453 46.6754 51.8948 46.2066 51.8906 45.7266C51.8864 45.134 51.6469 44.5673 51.2249 44.1513C50.8028 43.7353 50.2328 43.504 49.6402 43.5082C49.0476 43.5125 48.481 43.752 48.065 44.174C47.649 44.5961 47.4176 45.1661 47.4219 45.7587V46.4062H46.1719V45.7584C46.1731 45.1166 46.3518 44.4877 46.6882 43.9411C47.0246 43.3946 47.5057 42.9518 48.0781 42.6617C48.6506 42.3716 49.2921 42.2455 49.9318 42.2974C50.5715 42.3493 51.1843 42.5771 51.7025 42.9556C52.2208 43.3341 52.6242 43.8487 52.8682 44.4422C53.1122 45.0358 53.1872 45.6853 53.085 46.3189C52.9827 46.9525 52.7072 47.5454 52.2889 48.0321C51.8706 48.5189 51.3259 48.8804 50.7149 49.0767Z" fill="#3C65FF"/>
</svg>
