<svg width="80" height="80" viewBox="0 0 80 80" fill="none" xmlns="http://www.w3.org/2000/svg">
<rect width="80" height="80" rx="10" fill="white"/>
<g clip-path="url(#clip0_501_1098)">
<path d="M27.2 36.3906H22.3594V38.8906H27.2V36.3906Z" fill="#3C65FF"/>
<path d="M57.6407 36.3906H52.8V38.8906H57.6407V36.3906Z" fill="#3C65FF"/>
<path d="M28.2919 24.1626L26.5242 25.9303L30.0487 29.4548L31.8164 27.6871L28.2919 24.1626Z" fill="#3C65FF"/>
<path d="M41.25 20H38.75V24.8406H41.25V20Z" fill="#3C65FF"/>
<path d="M51.708 24.1649L48.1835 27.6894L49.9512 29.4572L53.4757 25.9327L51.708 24.1649Z" fill="#3C65FF"/>
<path d="M30.0494 45.8218L26.5249 49.3463L28.2927 51.1141L31.8172 47.5896L30.0494 45.8218Z" fill="#3C65FF"/>
<path d="M49.952 45.8241L48.1842 47.5919L51.7087 51.1164L53.4765 49.3486L49.952 45.8241Z" fill="#3C65FF"/>
<path d="M34.7156 54.7156C34.7156 55.4096 34.8523 56.0967 35.1178 56.7379C35.3834 57.379 35.7726 57.9615 36.2633 58.4522C36.754 58.9429 37.3366 59.3322 37.9777 59.5978C38.6188 59.8633 39.306 60 40 60C40.6939 60 41.3811 59.8633 42.0222 59.5978C42.6633 59.3322 43.2459 58.9429 43.7366 58.4522C44.2273 57.9615 44.6165 57.379 44.8821 56.7379C45.1476 56.0967 45.2843 55.4096 45.2843 54.7156V51.25H34.7156V54.7156Z" fill="#3C65FF"/>
<path d="M45.2844 49.9656C45.2772 49.1251 45.4471 48.2925 45.783 47.522C46.119 46.7515 46.6136 46.0604 47.2344 45.4937C48.8745 44.0289 50.0313 42.1008 50.552 39.9644C51.0726 37.8279 50.9327 35.5838 50.1505 33.5286C49.3683 31.4734 47.9808 29.704 46.1715 28.4544C44.3621 27.2047 42.2161 26.5336 40.0171 26.5298C37.8181 26.526 35.6698 27.1897 33.8561 28.4331C32.0424 29.6766 30.6489 31.4411 29.8596 33.4936C29.0704 35.5461 28.9227 37.7897 29.436 39.928C29.9493 42.0662 31.0994 43.9983 32.7344 45.4688C33.3612 46.0378 33.8614 46.7321 34.2027 47.5067C34.544 48.2814 34.7188 49.1191 34.7157 49.9656V50H45.2844V49.9656Z" fill="#3C65FF"/>
</g>
<defs>
<clipPath id="clip0_501_1098">
<rect width="40" height="40" fill="white" transform="translate(20 20)"/>
</clipPath>
</defs>
</svg>
