<svg width="24" height="24" viewBox="0 0 24 24" fill="none" xmlns="http://www.w3.org/2000/svg">
<circle cx="12" cy="12" r="12" fill="#3C65FF"/>
<path d="M6.30005 11.9996C6.30005 9.31276 6.30005 7.96876 7.13465 7.13416C7.96925 6.29956 9.31265 6.29956 12 6.29956C14.6868 6.29956 16.0308 6.29956 16.8654 7.13416C17.7 7.96876 17.7 9.31216 17.7 11.9996C17.7 14.6864 17.7 16.0304 16.8654 16.865C16.0308 17.6996 14.6874 17.6996 12 17.6996C9.31325 17.6996 7.96925 17.6996 7.13465 16.865C6.30005 16.0304 6.30005 14.687 6.30005 11.9996Z" stroke="white" stroke-width="0.409375" stroke-linecap="round" stroke-linejoin="round"/>
<path d="M15.3051 8.69934H15.2991M14.7003 11.9993C14.7003 12.7154 14.4158 13.4022 13.9095 13.9085C13.4031 14.4149 12.7164 14.6993 12.0003 14.6993C11.2842 14.6993 10.5975 14.4149 10.0911 13.9085C9.58476 13.4022 9.30029 12.7154 9.30029 11.9993C9.30029 11.2833 9.58476 10.5965 10.0911 10.0902C10.5975 9.5838 11.2842 9.29934 12.0003 9.29934C12.7164 9.29934 13.4031 9.5838 13.9095 10.0902C14.4158 10.5965 14.7003 11.2833 14.7003 11.9993Z" stroke="white" stroke-width="0.409375" stroke-linecap="round" stroke-linejoin="round"/>
</svg>
