<svg width="100" height="100" viewBox="0 0 100 100" fill="none" xmlns="http://www.w3.org/2000/svg">
<path d="M0 56.6667L1.85417 53.8417H12.5958C13.2042 53.8417 13.6042 53.4667 13.6042 52.8834V51.25H4.36667C1.61667 51.25 0.395833 50.0917 0.395833 47.5209V46.4125C0.395833 44.4959 1.5875 43.3375 3.46667 43.3375H3.675V47.4709C3.675 48.0542 4.075 48.4292 4.68333 48.4292H13.6292C15.6708 48.4292 16.8833 49.5875 16.8833 51.4792V52.9375C16.8833 55.4375 15.5917 56.6709 12.9167 56.6709L0 56.6667ZM64.3875 53.7917H72.6958C74.0708 53.7917 74.9458 52.9875 74.9458 51.725V48.275C74.9458 47.0125 74.0708 46.2084 72.6958 46.2084H64.3875V53.7917ZM61.0542 56.6667V43.3334H72.7792C76.2708 43.3334 78.2792 45.25 78.2792 48.425V51.575C78.2792 54.75 76.2708 56.6667 72.7792 56.6667H61.0542ZM44.8917 53.7917H51.9083C53.175 53.7917 53.9958 53.0375 53.9958 51.8542V48.1459C53.9958 46.9625 53.175 46.2084 51.9083 46.2084H44.8917C43.625 46.2084 42.8042 46.9625 42.8042 48.1459V51.8542C42.8042 53.0375 43.625 53.7917 44.8917 53.7917ZM51.9875 56.6667H44.8125C41.425 56.6667 39.4667 54.8 39.4667 51.7V48.3C39.4667 45.2 41.425 43.3334 44.8125 43.3334H51.9875C55.375 43.3334 57.3333 45.2 57.3333 48.3V51.7C57.3333 54.8 55.375 56.6667 51.9875 56.6667ZM79.65 56.6667L87.5083 43.3334H92.1417L100 56.6667H96.1875L94.8375 54.375H88.1417L86.3458 51.65L83.3792 56.6667H79.65ZM86.425 51.5H93.1458L89.7833 45.8292L86.425 51.5ZM6.95833 46.1042L5.05417 43.3334H16.5667L14.7125 46.1042H6.95833ZM20.5542 56.6667V43.3334H23.8875V48.525H28.3083L34.05 43.3334H38.4708L31.1667 49.9584L38.6042 56.6667H33.9167L28.1708 51.4H23.8875V56.6667H20.5542Z" fill="#576F75"/>
</svg>
