<svg width="100" height="100" viewBox="0 0 100 100" fill="none" xmlns="http://www.w3.org/2000/svg">
<path d="M85.0833 30.6041V68.8541H91.9625V30.6041H85.0833ZM0 31.1458V38.3833H7.2375V31.1416L0 31.1458ZM40.75 32.6125V57.8333C40.75 59.9708 40.9333 61.7708 41.2917 63.2166C41.6542 64.6333 42.2708 65.7916 43.125 66.6666C43.9708 67.5416 45.1042 68.1625 46.4708 68.5458C47.8625 68.9333 49.6125 69.1125 51.7 69.1125H52.6V62.725C51.6 62.725 50.7458 62.675 50.1292 62.5708C49.5236 62.5134 48.9531 62.2604 48.5042 61.85C48.1091 61.4122 47.8576 60.8641 47.7833 60.2791C47.6681 59.4426 47.6165 58.5985 47.6292 57.7541V48.6625H52.6V42.7625H47.6292V32.6125H40.75ZM26.1458 42.2458C24.4958 42.2458 22.9792 42.5791 21.6375 43.25C20.275 43.9208 19.1375 44.85 18.2125 46.0333L17.85 46.5208V42.7625H11.075V68.8291H17.9042V55.4375C17.9792 52.9875 18.5708 51.1875 19.7083 50.025C20.9167 48.7875 22.3833 48.1708 24.0583 48.1708C26.0417 48.1708 27.5625 48.7916 28.5667 49.975C29.5458 51.1583 30.0625 52.8333 30.0625 54.975V68.825H36.9917V54.0416C37.0167 50.3333 36.0375 47.3958 34.1333 45.3333C32.225 43.2708 29.55 42.2416 26.1458 42.2416V42.2458ZM68.0833 42.2708C66.3013 42.2637 64.5353 42.6082 62.8865 43.2846C61.2378 43.9609 59.7387 44.9559 58.475 46.2125C57.2667 47.4208 56.2875 48.8666 55.5917 50.5166C54.8739 52.1918 54.5134 53.9984 54.5333 55.8208C54.5333 57.7041 54.8667 59.4791 55.5375 61.1291C56.2083 62.775 57.1625 64.2208 58.3458 65.4291C59.5292 66.6375 61 67.6208 62.7 68.3166C64.4 69.0375 66.2833 69.4 68.2917 69.4C74.1125 69.4 77.7167 66.7458 79.8833 64.275L74.9375 60.5083C73.9042 61.7458 71.4333 63.4208 68.3417 63.4208C66.4083 63.4208 64.8125 62.9833 63.6 62.0833C62.3866 61.189 61.5149 59.9072 61.1292 58.45L61.05 58.2166H81.5292V55.7708C81.5292 53.8916 81.1958 52.1375 80.55 50.4916C79.901 48.9015 78.9677 47.443 77.7958 46.1875C76.593 44.9438 75.146 43.9621 73.5458 43.3041C71.8129 42.5963 69.9551 42.2449 68.0833 42.2708ZM0.179167 42.7625V68.8291H7.05833V42.7625H0.179167ZM68.0042 48.1208C72.7208 48.1208 74.9375 51.4416 74.9375 53.35L61.1042 53.375C61.1042 51.4666 63.2917 48.1458 68.0042 48.1208ZM97.475 64.0125C96.8053 64.0125 96.1631 64.2785 95.6896 64.752C95.216 65.2255 94.95 65.8678 94.95 66.5375C94.95 67.2071 95.216 67.8494 95.6896 68.3229C96.1631 68.7964 96.8053 69.0625 97.475 69.0625C98.1447 69.0625 98.7869 68.7964 99.2604 68.3229C99.734 67.8494 100 67.2071 100 66.5375C100 65.8678 99.734 65.2255 99.2604 64.752C98.7869 64.2785 98.1447 64.0125 97.475 64.0125ZM97.4417 64.45C97.4444 64.45 97.4472 64.45 97.45 64.45C97.7239 64.45 97.9952 64.504 98.2482 64.6089C98.5013 64.7139 98.7311 64.8677 98.9246 65.0616C99.1181 65.2555 99.2715 65.4857 99.3759 65.7389C99.4804 65.9922 99.5339 66.2635 99.5333 66.5375C99.5333 66.811 99.4794 67.082 99.3747 67.3347C99.27 67.5875 99.1166 67.8171 98.9231 68.0106C98.7297 68.2041 98.5 68.3575 98.2473 68.4622C97.9945 68.5669 97.7236 68.6208 97.45 68.6208C96.8975 68.6208 96.3676 68.4013 95.9769 68.0106C95.5862 67.6199 95.3667 67.09 95.3667 66.5375C95.3667 65.9864 95.585 65.4577 95.9739 65.0673C96.3628 64.6768 96.8906 64.4522 97.4417 64.45ZM96.4708 65.0958V68.0083H97.0125V66.8208H97.4L98.1208 68.0083H98.6875L97.9375 66.7708C98.1237 66.7532 98.2978 66.6706 98.4292 66.5375C98.5542 66.4125 98.6375 66.2291 98.6375 65.9708C98.6375 65.6875 98.5542 65.4833 98.375 65.3291C98.2208 65.1708 97.9375 65.0958 97.6042 65.0958H96.4708ZM97.0125 65.5083H97.6542C97.7333 65.5083 97.8083 65.5333 97.8875 65.5583C97.9538 65.5796 98.0091 65.6259 98.0417 65.6875C98.0958 65.7416 98.0917 65.8166 98.0917 65.9208C98.0928 66 98.0757 66.0784 98.0417 66.15C97.9969 66.2004 97.945 66.2439 97.8875 66.2791C97.8083 66.3041 97.7333 66.3333 97.6542 66.3333H97.0125V65.5083Z" fill="#576F75"/>
</svg>
