<svg width="100" height="100" viewBox="0 0 100 100" fill="none" xmlns="http://www.w3.org/2000/svg">
<path d="M58.0125 59.0624C58.0125 59.2541 58.075 59.3624 58.1833 59.3624C58.2712 59.3506 58.3544 59.3161 58.425 59.2624L89.5917 39.0374C90.1181 38.6687 90.7491 38.4788 91.3917 38.4958H98.2417C99.2917 38.4958 100 39.1958 100 40.2458V53.3249C100 54.9083 99.65 55.8249 98.25 56.6624L89.9417 61.6624C89.859 61.7198 89.7627 61.7543 89.6625 61.7624C89.5625 61.7624 89.4625 61.6833 89.4625 61.3958V46.1333C89.4625 45.9541 89.4125 45.8374 89.2917 45.8374C89.2033 45.8473 89.1195 45.882 89.05 45.9374L66.275 60.7333C65.7594 61.0842 65.1487 61.2689 64.525 61.2624H49.425C48.3667 61.2624 47.6667 60.5624 47.6667 59.5041V40.6541C47.6667 40.5166 47.6042 40.3874 47.4833 40.3874C47.3967 40.3991 47.3147 40.4336 47.2458 40.4874L32.2167 49.4999C32.0667 49.5999 32.025 49.6708 32.025 49.7416C32.025 49.7999 32.0583 49.8624 32.1583 49.9708L42.8958 60.6999C43.0375 60.8416 43.1375 60.9499 43.1375 61.0708C43.1375 61.1708 42.975 61.2499 42.7875 61.2499H33.0833C32.3208 61.2499 31.7333 61.1416 31.3208 60.7291L24.8125 54.2291C24.7879 54.1996 24.7574 54.1754 24.7229 54.1582C24.6885 54.141 24.6509 54.1311 24.6125 54.1291C24.5417 54.1331 24.473 54.1546 24.4125 54.1916L13.5375 60.7333C13.0175 61.0826 12.4012 61.2603 11.775 61.2416H1.77083C0.7 61.2499 0 60.5416 0 59.4958V46.6624C0 45.0791 0.35 44.1624 1.75833 43.3291L10.125 38.2999C10.1899 38.2587 10.2648 38.2357 10.3417 38.2333C10.475 38.2333 10.5417 38.3583 10.5417 38.6499V55.8333C10.5417 56.0124 10.5833 56.0958 10.7125 56.0958C10.8023 56.0818 10.8878 56.0476 10.9625 55.9958L39.1958 38.9999C39.7432 38.6315 40.3952 38.4502 41.0542 38.4833H56.2542C57.3042 38.4833 58.0125 39.1833 58.0125 40.2333L58.0042 59.0583L58.0125 59.0624Z" fill="#576F75"/>
</svg>
