<svg width="100" height="100" viewBox="0 0 100 100" fill="none" xmlns="http://www.w3.org/2000/svg">
<path d="M53.2297 27.7295C53.3914 27.719 53.5535 27.7441 53.7043 27.8033C53.8551 27.8624 53.9908 27.954 54.1016 28.0715C54.2125 28.189 54.2957 28.3294 54.3453 28.4827C54.395 28.636 54.4098 28.7983 54.3887 28.958L54.3998 29.9701C54.4035 32.1447 54.3924 34.3156 54.4072 36.4865C54.4219 38.078 54.7025 38.3824 56.2527 38.5767C60.121 38.9302 64.0162 38.8736 67.8724 38.408C69.8704 38.2702 71.8319 37.8069 73.6785 37.0365C74.1336 36.8976 74.5182 36.5915 74.7541 36.1807C74.99 35.7699 75.0594 35.2852 74.9483 34.8253C74.2137 29.7492 71.9286 25.0194 68.4017 21.2748C64.8748 17.5302 60.276 14.9513 55.2266 13.8864C50.7435 12.9182 46.0765 13.2258 41.7614 14.7738C37.9724 16.0846 34.5602 18.2893 31.8175 21.1985C27.5955 25.3703 25.1538 30.9979 25 36.9119C25.0799 44.0267 27.021 50.9987 30.6327 57.143C31.0737 58.0415 31.7797 58.7852 32.6567 59.2752C33.5336 59.7652 34.54 59.9782 35.5418 59.886C37.9521 59.8273 40.3661 59.8713 42.7764 59.8713V59.8603H50.4687C51.3915 59.8603 52.1187 60.0803 52.1113 61.2245C52.0928 63.8868 52.1113 66.5417 52.1002 69.204C52.0928 70.0107 51.864 70.7882 50.8969 70.7955C49.9225 70.8028 49.6899 70.0291 49.6788 69.2187C49.6604 67.9462 49.6788 66.6737 49.6788 65.4013C49.6788 63.7474 49.4094 63.3587 47.7484 63.0543C44.8802 62.59 41.9573 62.5652 39.0816 62.981C38.0651 63.0629 37.0683 63.3056 36.1287 63.6997C35.3462 64.0664 35.0362 64.5982 35.4163 65.4123C35.8113 66.2593 36.1767 67.1248 36.6455 67.9352C40.4366 74.2739 44.6618 80.3462 49.2913 86.1091C49.8597 86.8389 50.2989 86.8536 50.8821 86.1458C52.1703 84.5836 53.5213 83.0692 54.7947 81.496C59.7889 75.4875 64.2091 69.0301 67.9979 62.2072C70.5272 57.7699 72.3852 52.987 73.5124 48.0121C73.7624 47.3749 73.8599 46.6887 73.7972 46.0077C73.7344 45.3267 73.5132 44.6695 73.1509 44.088C72.7886 43.5065 72.2953 43.0167 71.7097 42.6572C71.1242 42.2976 70.4625 42.0783 69.777 42.0164C67.754 41.5716 65.6842 41.3721 63.6128 41.4223C60.2576 41.4003 56.9024 41.4113 53.5471 41.415C52.6428 41.415 51.971 41.1583 51.971 40.1022C51.971 36.3985 51.9636 32.6874 51.9784 28.98C51.9784 28.1879 52.3623 27.6965 53.2297 27.7295Z" fill="#576F75"/>
</svg>
