<svg width="100" height="100" viewBox="0 0 100 100" fill="none" xmlns="http://www.w3.org/2000/svg">
<path d="M69.125 38.9499V61.0499H72.4417V38.9499H69.125ZM33.7208 38.5749C27.2625 38.5749 22.2542 43.2708 22.2542 49.9999C22.2542 57.0291 27.2625 61.4249 33.7208 61.4249C40.1792 61.4249 45.1958 57.0291 45.1833 49.9999C45.1956 48.493 44.9072 46.9987 44.3351 45.6046C43.7629 44.2104 42.9185 42.9444 41.8511 41.8805C40.7838 40.8167 39.515 39.9764 38.1189 39.4088C36.7229 38.8412 35.2277 38.5577 33.7208 38.5749ZM41.875 49.9999C41.875 54.9791 38.225 58.2791 33.7208 58.2791C29.2125 58.2791 25.5625 54.9791 25.5625 49.9999C25.5625 45.1083 29.2125 41.7208 33.7208 41.7208C38.2208 41.7208 41.875 45.1083 41.875 49.9999ZM0 38.2333V61.0499H3.38333V45.9708L20.9583 61.7624V57.0333L0 38.2333ZM47.675 49.9999L59.975 61.0499H64.9083L52.5917 49.9999L64.9083 38.9499H59.975L47.675 49.9999ZM100 61.0499H96.3542L93.6875 56.1541H81.6125L78.9458 61.0499H75.3L79.7167 52.8916H91.9542L85.85 41.5583L87.65 38.2333L100 61.0499Z" fill="#576F75"/>
</svg>
