<svg width="100" height="100" viewBox="0 0 100 100" fill="none" xmlns="http://www.w3.org/2000/svg">
<path d="M11.875 53.275C6.82917 53.225 3.575 50.8334 3.575 47.1709C3.575 43.5084 6.82917 41.1209 11.8667 41.0667C16.9083 41.1209 20.1667 43.5167 20.1667 47.1709C20.1667 50.825 16.9083 53.225 11.875 53.275ZM12.0167 38.1167H11.7125C4.81667 38.2292 0 41.95 0 47.1667C0 52.3834 4.81667 56.1125 11.7125 56.225H12.0167C18.9125 56.1125 23.7292 52.3875 23.7292 47.1667C23.7292 41.9459 18.9125 38.2292 12.0167 38.1167ZM88.1417 53.275C83.1 53.225 79.8417 50.8292 79.8417 47.1709C79.8417 43.5125 83.1 41.1209 88.1375 41.0667C93.1792 41.1209 96.4333 43.5167 96.4333 47.1709C96.4333 50.825 93.1792 53.225 88.1417 53.275ZM88.2875 38.1167H87.9833C81.0875 38.2292 76.2708 41.95 76.2708 47.1709C76.2708 52.3917 81.0875 56.1167 87.9792 56.2292H88.2875C95.1833 56.1167 100 52.3917 100 47.1667C100 41.9417 95.1833 38.2292 88.2875 38.1167ZM62.7625 53.275C57.7208 53.225 54.4708 50.8292 54.4708 47.1709C54.4708 43.5125 57.7208 41.1209 62.7625 41.0667C67.8042 41.1209 71.0583 43.5167 71.0583 47.1709C71.0583 50.825 67.8042 53.225 62.7667 53.275H62.7625ZM62.9125 38.1167H62.6083C59.3208 38.1709 56.5083 39.0417 54.4625 40.5084V38.9667H50.8917V61.8834H54.4625V53.8375C56.5042 55.3 59.3208 56.1709 62.6042 56.2292H62.9125C69.8083 56.1167 74.6208 52.3917 74.6208 47.1709C74.6208 41.95 69.8083 38.2292 62.9125 38.1167ZM37.3125 53.275C32.2708 53.225 29.0208 50.8292 29.0208 47.1709C29.0208 43.5125 32.2708 41.1209 37.3125 41.0667C42.3542 41.1209 45.6083 43.5167 45.6083 47.1709C45.6083 50.825 42.3542 53.225 37.3167 53.275H37.3125ZM37.4667 38.1167H37.1667C33.8792 38.1709 31.0667 39.0417 29.0208 40.5084V38.9667H25.4542V61.8834H29.0208V53.8375C31.0667 55.3 33.8792 56.1709 37.1667 56.2292C37.2681 56.2302 37.3694 56.2302 37.4708 56.2292C44.3667 56.1167 49.1833 52.3917 49.1833 47.1709C49.1833 41.95 44.3667 38.2292 37.475 38.1167H37.4667Z" fill="#576F75"/>
</svg>
