<svg width="100" height="100" viewBox="0 0 100 100" fill="none" xmlns="http://www.w3.org/2000/svg">
<path d="M25.0038 34.0375C27.4815 34.0375 29.4903 36.0456 29.4903 38.5236C29.4903 41.0019 27.4815 43.01 25.0038 43.01H4.4866C2.00864 43.01 0 41.0019 0 38.5236C0 36.0456 2.00864 34.0375 4.48643 34.0375H25.0038Z" fill="#576F75"/>
<path d="M22.9414 45.7933C25.4196 45.7933 27.4282 47.8018 27.4282 50.2797C27.4282 52.7577 25.4196 54.7661 22.9414 54.7661H11.2638C10.2678 54.7697 9.45257 55.5576 9.41444 56.5436V62.391C9.41444 64.8686 7.4058 66.8771 4.92849 66.8771C2.45053 66.8771 0.441895 64.8686 0.441895 62.391V52.4397C0.441895 48.7692 3.41745 45.7931 7.08818 45.7931L22.9414 45.7933ZM31.5275 37.5781C31.5275 35.1005 33.5362 33.0917 36.014 33.0917C38.4921 33.0917 40.5004 35.1005 40.5004 37.5781V62.4223C40.5004 64.9003 38.4923 66.9088 36.014 66.9088C33.5363 66.9088 31.5275 64.9001 31.5275 62.4223V37.5781ZM86.7456 58.0102L88.5485 58.0057C88.7255 58.0055 88.8951 57.9351 89.0202 57.81C89.1453 57.6849 89.2157 57.5152 89.2158 57.3383C89.2185 57.2507 89.2024 57.1634 89.1686 57.0826L82.4646 45.8172L71.9916 63.9518C71.1825 65.3541 69.7298 66.1538 68.2221 66.194C68.1771 66.2004 68.1318 66.2035 68.0864 66.2036H51.0422C47.3713 66.2036 44.3955 63.2277 44.3955 59.5571V37.5784C44.3955 35.1006 46.4043 33.0918 48.882 33.0918C51.3595 33.0918 53.3684 35.1006 53.3684 37.5783V55.3809C53.3716 56.3774 54.1594 57.1931 55.146 57.2302H64.6805C64.9257 57.1548 65.6757 56.8998 65.9041 56.5449L77.8798 35.8139C78.7886 34.2536 80.4789 33.2031 82.4137 33.2031C84.3495 33.2031 86.0402 34.2552 86.9449 35.8188L98.6145 55.4111C99.5148 56.5816 100.002 58.0173 99.9997 59.4939C99.9997 63.1996 96.9957 66.2032 93.2907 66.2032H79.6881C77.4247 66.2032 75.5915 64.3689 75.5915 62.1062C75.5915 59.8442 77.4249 58.0102 79.6881 58.0102H86.7456Z" fill="#576F75"/>
</svg>
